# xmcd CD database file
#
# Track frame offsets:
#	150
#	30923
#	42435
#	54581
#	68562
#	80617
#	98230
#	148121
#	159641
#	174012
#	189915
#	203315
#	215326
#
# Disc length: 3035 seconds
#
# Revision: 2
# Processed by: cddbd v1.5.2PL0 Copyright (c) Steve Scherf et al.
# Submitted via: CDex 1.51
#
DISCID=a10bd90d
DTITLE=Dizzy Gillespie - Salt Peanuts  [CD 09-10]
DYEAR=1900
DGENRE=Jazz
TTITLE0=It's The Talk Of The Town
TTITLE1=Lullaby Of Birdland
TTITLE2=Minor Walk
TTITLE3=Hot House
TTITLE4=If That's The Way You Feel
TTITLE5=Jubilee
TTITLE6=Tour De Force
TTITLE7=Jonah Joins The Cab
TTITLE8=Just One More Chance
TTITLE9=Lover Come Back To Me
TTITLE10=I Stay In The Mood For You
TTITLE11=Tin Tin Deo
TTITLE12=Two Bass Hit
EXTD=
EXTT0=
EXTT1=
EXTT2=
EXTT3=
EXTT4=
EXTT5=
EXTT6=
EXTT7=
EXTT8=
EXTT9=
EXTT10=
EXTT11=
EXTT12=
PLAYORDER=
